{
    "asset": {
        "version": "2.0",
        "generator": "Open Asset Import Library (assimp v5.0.5eb040c7)"
    },
    "accessors": [
        {
            "bufferView": 0,
            "byteOffset": 0,
            "componentType": 5126,
            "count": 7030,
            "type": "VEC3",
            "max": [
                366.1419982910156,
                237.46499633789063,
                729.6229858398438
            ],
            "min": [
                -387.7950134277344,
                5.020559787750244,
                -327.4630126953125
            ]
        },
        {
            "bufferView": 1,
            "byteOffset": 0,
            "componentType": 5126,
            "count": 7030,
            "type": "VEC2",
            "max": [
                115.24800109863281,
                110.80799865722656
            ],
            "min": [
                -330.8039855957031,
                -197.81900024414063
            ]
        },
        {
            "bufferView": 2,
            "byteOffset": 0,
            "componentType": 5125,
            "count": 34200,
            "type": "SCALAR",
            "max": [
                7029
            ],
            "min": [
                0
            ]
        }
    ],
    "buffers": [
        {
            "byteLength": 277400,
            "uri": "result.bin"
        }
    ],
    "bufferViews": [
        {
            "buffer": 0,
            "byteOffset": 0,
            "byteLength": 84360,
            "target": 34962
        },
        {
            "buffer": 0,
            "byteOffset": 84360,
            "byteLength": 56240,
            "target": 34962
        },
        {
            "buffer": 0,
            "byteOffset": 140600,
            "byteLength": 136800,
            "target": 34963
        }
    ],
    "materials": [
        {
            "name": "DefaultMaterial",
            "pbrMetallicRoughness": {
                "baseColorFactor": [
                    0.6000000238418579,
                    0.6000000238418579,
                    0.6000000238418579,
                    1.0
                ],
                "metallicFactor": 0.0
            }
        }
    ],
    "meshes": [
        {
            "name": "mesh_0",
            "primitives": [
                {
                    "mode": 4,
                    "material": 0,
                    "indices": 2,
                    "attributes": {
                        "POSITION": 0,
                        "TEXCOORD_0": 1
                    }
                }
            ]
        }
    ],
    "nodes": [
        {
            "name": "input.obj",
            "children": [
                1
            ]
        },
        {
            "name": "mesh_0",
            "mesh": 0
        }
    ],
    "scenes": [
        {
            "nodes": [
                0
            ]
        }
    ],
    "scene": 0
}